#!OML:ASF H:\Dans Jumps\Project 1\Capture day 1\Session 1\subject.ASF
:FULLY-SPECIFIED
:DEGREES
303
root -0.0911062 21.3081 -11.7217 10.6967 3.78645 -0.538952
lowerback 17.76 0.363675 -2.05966
upperback 8.84714 0.237591 2.31341
thorax -0.494851 0.0108237 3.56634
lowerneck -10.9448 -0.677755 -1.88389
upperneck 23.7555 -0.891029 1.45728
head 9.27966 -0.417636 0.722067
rclavicle -4.96962e-015 1.15295e-014
rhumerus 9.65141 1.46542 -91.3094
rradius 30.4988
rwrist 24.1072
rhand -23.8474 -20.5039
rfingers 7.12502
rthumb 2.62476 -50.4675
lclavicle -4.96962e-015 1.15295e-014
lhumerus 11.8497 -18.0385 92.9525
lradius 39.2357
lwrist 32.5099
lhand -28.5468 -16.28
lfingers 7.12502
lthumb -1.91399 13.6912
rfemur -36.4533 -3.74955 19.3127
rtibia 41.53
rfoot 14.5577 -5.99813
rtoes 23.3506
lfemur -35.66 3.60181 -18.8504
ltibia 41.7853
lfoot 20.6607 -1.17552
ltoes 4.71255
304
root -0.0934174 21.3613 -11.6475 10.6664 3.93507 -0.546804
lowerback 17.7195 0.339627 -2.01425
upperback 8.82869 0.213449 2.26785
thorax -0.492213 0.00179788 3.49612
lowerneck -11.1938 -0.714582 -1.86728
upperneck 23.9458 -0.971114 1.57268
head 9.39539 -0.439944 0.75036
rclavicle 5.1684e-015 -9.54166e-015
rhumerus 9.48936 1.19371 -91.5275
rradius 30.3435
rwrist 24.301
rhand -23.8931 -20.4824
rfingers 7.12502
rthumb 2.58059 -50.4466
lclavicle 5.1684e-015 -9.54166e-015
lhumerus 11.7789 -18.1968 93.0136
lradius 38.9757
lwrist 32.3515
lhand -28.2802 -15.9451
lfingers 7.12502
lthumb -1.65653 14.0282
rfemur -36.4893 -4.02743 19.4927
rtibia 40.3035
rfoot 14.5808 -5.93737
rtoes 22.9207
lfemur -35.8141 3.66871 -18.9213
ltibia 40.9677
lfoot 20.322 -1.34217
ltoes 4.50996
305
root -0.0957287 21.4012 -11.5722 10.69 4.0748 -0.536245
lowerback 17.6296 0.312772 -1.9917
upperback 8.7805 0.182596 2.21552
thorax -0.495437 -0.0106654 3.43266
lowerneck -11.4113 -0.747388 -1.86466
upperneck 24.1486 -1.04277 1.6829
head 9.51 -0.459931 0.78034
rclavicle -4.96962e-015 -1.59028e-014
rhumerus 9.29571 0.925896 -91.7415
rradius 30.1458
rwrist 24.5188
rhand -23.9518 -20.4839
rfingers 7.12502
rthumb 2.52387 -50.4487
lclavicle -4.96962e-015 -1.59028e-014
lhumerus 11.6635 -18.2954 93.0846
lradius 38.6623
lwrist 32.0202
lhand -28.0979 -15.601
lfingers 7.12502
lthumb -1.48047 14.3736
rfemur -36.6002 -4.39209 19.6901
rtibia 39.1114
rfoot 14.6636 -5.8748
rtoes 22.4959
lfemur -35.999 3.76156 -19.0159
ltibia 40.0389
lfoot 20.0248 -1.56609
ltoes 4.41474
306
root -0.0983363 21.428 -11.4959 10.7474 4.18994 -0.508206
lowerback 17.4995 0.2917 -2.00515
upperback 8.71793 0.154064 2.15913
thorax -0.493252 -0.0229394 3.38473
lowerneck -11.6173 -0.775305 -1.86699
upperneck 24.3571 -1.10327 1.77632
head 9.62471 -0.476788 0.806738
rclavicle 4.37326e-015 1.59028e-015
rhumerus 9.087 0.67722 -91.9408
rradius 29.911
rwrist 24.752
rhand -24.036 -20.5029
rfingers 7.12502
rthumb 2.44258 -50.4686
lclavicle 4.37326e-015 1.59028e-015
lhumerus 11.5255 -18.3458 93.1555
lradius 38.3083
lwrist 31.5709
lhand -27.9871 -15.2738
lfingers 7.12502
lthumb -1.37348 14.7015
rfemur -36.7679 -4.80952 19.8965
rtibia 37.9737
rfoot 14.7814 -5.77682
rtoes 22.0284
lfemur -36.1948 3.87518 -19.126
ltibia 39.0234
lfoot 19.7776 -1.8448
ltoes 4.47345
307
root -0.10197 21.4411 -11.4191 10.8358 4.24259 -0.487088
lowerback 17.3253 0.294961 -2.05231
upperback 8.64624 0.15237 2.10323
thorax -0.479681 -0.0230956 3.35157
lowerneck -11.8077 -0.802811 -1.88095
upperneck 24.5534 -1.16091 1.86847
head 9.73268 -0.493354 0.835041
rclavicle -4.37326e-015 -1.25234e-014
rhumerus 8.8689 0.442597 -92.1203
rradius 29.6497
rwrist 24.9967
rhand -24.1481 -20.513
rfingers 7.12502
rthumb 2.33431 -50.48
lclavicle -4.37326e-015 -1.25234e-014
lhumerus 11.3583 -18.35 93.2332
lradius 37.9431
lwrist 31.0523
lhand -27.9304 -14.9577
lfingers 7.12502
lthumb -1.31873 15.018
rfemur -36.9945 -5.21637 20.1259
rtibia 36.9001
rfoot 14.9511 -5.63939
rtoes 21.5899
lfemur -36.4064 4.02582 -19.2203
ltibia 37.9485
lfoot 19.5594 -2.15795
ltoes 4.58982
308
root -0.106483 21.4409 -11.3418 10.9346 4.21932 -0.484838
lowerback 17.113 0.327592 -2.12834
upperback 8.57359 0.184991 2.05205
thorax -0.449654 -0.00755561 3.33382
lowerneck -11.9662 -0.830609 -1.90544
upperneck 24.7182 -1.21623 1.95727
head 9.82373 -0.510176 0.864213
rclavicle 1.98785e-015 -2.10712e-014
rhumerus 8.63931 0.230751 -92.2736
rradius 29.3742
rwrist 25.2405
rhand -24.2666 -20.5233
rfingers 7.12502
rthumb 2.21988 -50.4915
lclavicle 1.98785e-015 -2.10712e-014
lhumerus 11.1693 -18.312 93.3161
lradius 37.5757
lwrist 30.5403
lhand -27.9001 -14.6808
lfingers 7.12502
lthumb -1.28943 15.295
rfemur -37.2483 -5.57939 20.378
rtibia 35.888
rfoot 15.1711 -5.46374
rtoes 21.182
lfemur -36.6116 4.2103 -19.2805
ltibia 36.8348
lfoot 19.3572 -2.48834
ltoes 4.70298
309
root -0.112072 21.4277 -11.2633 11.0218 4.14413 -0.506935
lowerback 16.8738 0.385202 -2.21266
upperback 8.50818 0.249464 2.00355
thorax -0.399925 0.0230248 3.31833
lowerneck -12.0961 -0.86079 -1.92042
upperneck 24.8545 -1.27506 2.03735
head 9.89943 -0.528709 0.88825
rclavicle -1.19271e-015 9.14409e-015
rhumerus 8.39955 0.0116807 -92.4099
rradius 29.0966
rwrist 25.4831
rhand -24.3826 -20.5248
rfingers 7.12502
rthumb 2.10787 -50.4941
lclavicle -1.19271e-015 9.14409e-015
lhumerus 10.9579 -18.2554 93.3991
lradius 37.226
lwrist 30.0956
lhand -27.8643 -14.4562
lfingers 7.12502
lthumb -1.25488 15.5199
rfemur -37.4867 -5.89264 20.6496
rtibia 34.9333
rfoot 15.4346 -5.27426
rtoes 20.7915
lfemur -36.7862 4.39995 -19.2897
ltibia 35.6974
lfoot 19.1607 -2.81484
ltoes 4.71757
310
root -0.118493 21.402 -11.1828 11.0923 4.01377 -0.556744
lowerback 16.5875 0.467878 -2.29957
upperback 8.45402 0.34724 1.95786
thorax -0.316002 0.0692532 3.30206
lowerneck -12.1902 -0.893135 -1.91971
upperneck 24.9716 -1.33694 2.10191
head 9.96148 -0.548978 0.903808
rclavicle 7.15625e-015 -3.57812e-015
rhumerus 8.14467 -0.226287 -92.5328
rradius 28.8232
rwrist 25.7375
rhand -24.4881 -20.51
rfingers 7.12502
rthumb 2.00593 -50.4803
lclavicle 7.15625e-015 -3.57812e-015
lhumerus 10.7309 -18.1855 93.4846
lradius 36.8831
lwrist 29.7554
lhand -27.7756 -14.3205
lfingers 7.12502
lthumb -1.16919 15.656
rfemur -37.6864 -6.14084 20.9348
rtibia 34.0293
rfoot 15.7352 -5.09183
rtoes 20.4443
lfemur -36.9147 4.59333 -19.241
ltibia 34.5429
lfoot 18.9879 -3.08948
ltoes 4.61145
311
root -0.125146 21.3641 -11.0995 11.1155 3.89255 -0.619376
lowerback 16.2826 0.551359 -2.36696
upperback 8.41425 0.449857 1.91113
thorax -0.207046 0.117942 3.27359
lowerneck -12.2323 -0.926402 -1.89646
upperneck 25.075 -1.40274 2.15396
head 10.0085 -0.570518 0.910691
rclavicle 5.36719e-015 -1.23246e-014
rhumerus 7.86728 -0.493728 -92.6506
rradius 28.5611
rwrist 25.979
rhand -24.5589 -20.4869
rfingers 7.12502
rthumb 1.93753 -50.4579
lclavicle 5.36719e-015 -1.23246e-014
lhumerus 10.4726 -18.1092 93.5701
lradius 36.5717
lwrist 29.5268
lhand -27.6705 -14.2287
lfingers 7.12502
lthumb -1.06771 15.7484
rfemur -37.7911 -6.3679 21.2115
rtibia 33.1745
rfoot 16.0492 -4.95316
rtoes 20.1637
lfemur -36.9559 4.73524 -19.1398
ltibia 33.3735
lfoot 18.8689 -3.28388
ltoes 4.34698
312
root -0.131688 21.3142 -11.0123 11.082 3.78927 -0.690364
lowerback 15.9509 0.630758 -2.41232
upperback 8.39149 0.551406 1.86395
thorax -0.0655156 0.166093 3.23327
lowerneck -12.2255 -0.958666 -1.85254
upperneck 25.18 -1.46917 2.19248
head 10.0466 -0.592092 0.909337
rclavicle 4.96962e-015 -1.70955e-014
rhumerus 7.56232 -0.791822 -92.7661
rradius 28.3152
rwrist 26.204
rhand -24.5945 -20.4866
rfingers 7.12502
rthumb 1.90317 -50.4579
lclavicle 4.96962e-015 -1.70955e-014
lhumerus 10.1859 -18.0346 93.6559
lradius 36.282
lwrist 29.4024
lhand -27.5549 -14.1806
lfingers 7.12502
lthumb -0.956018 15.797
rfemur -37.774 -6.57346 21.4655
rtibia 32.3687
rfoot 16.3564 -4.87189
rtoes 19.9464
lfemur -36.8867 4.82267 -18.9903
ltibia 32.1918
lfoot 18.8443 -3.37592
ltoes 3.96111
313
root -0.137849 21.252 -10.9207 10.9931 3.7196 -0.75912
lowerback 15.5938 0.698291 -2.43866
upperback 8.37724 0.641256 1.81658
thorax 0.0997866 0.208623 3.18489
lowerneck -12.1641 -0.98904 -1.80584
upperneck 25.3065 -1.53489 2.23163
head 10.0819 -0.613147 0.908091
rclavicle -5.56597e-015 3.97569e-016
rhumerus 7.21447 -1.10523 -92.8752
rradius 28.0928
rwrist 26.3839
rhand -24.5882 -20.513
rfingers 7.12502
rthumb 1.90928 -50.4842
lclavicle -5.56597e-015 3.97569e-016
lhumerus 9.8537 -17.9461 93.7528
lradius 36.0089
lwrist 29.331
lhand -27.4565 -14.1505
lfingers 7.12502
lthumb -0.860997 15.8275
rfemur -37.627 -6.7633 21.6778
rtibia 31.6155
rfoot 16.634 -4.86429
rtoes 19.8154
lfemur -36.7004 4.85054 -18.8076
ltibia 31.0005
lfoot 18.9315 -3.37572
ltoes 3.46101
314
root -0.143446 21.1774 -10.8245 10.8387 3.70315 -0.81934
lowerback 15.2204 0.744573 -2.44914
upperback 8.37082 0.706544 1.77275
thorax 0.284414 0.23908 3.13605
lowerneck -12.0661 -1.01489 -1.76219
upperneck 25.4824 -1.59465 2.26981
head 10.1279 -0.631817 0.908159
rclavicle -8.34896e-015 3.97569e-015
rhumerus 6.82183 -1.4154 -92.9732
rradius 27.893
rwrist 26.5103
rhand -24.5391 -20.5811
rfingers 7.12502
rthumb 1.95672 -50.5519
lclavicle -8.34896e-015 3.97569e-015
lhumerus 9.48658 -17.838 93.8579
lradius 35.7302
lwrist 29.2749
lhand -27.3983 -14.1134
lfingers 7.12502
lthumb -0.804744 15.8649
rfemur -37.3294 -6.94091 21.8315
rtibia 30.9151
rfoot 16.8454 -4.9379
rtoes 19.7379
lfemur -36.3832 4.80842 -18.5994
ltibia 29.8112
lfoot 19.1204 -3.31325
ltoes 2.95841
315
root -0.148413 21.0902 -10.7233 10.618 3.76226 -0.866588
lowerback 14.8397 0.762785 -2.43914
upperback 8.36898 0.738578 1.73162
thorax 0.48083 0.253519 3.08411
lowerneck -11.9708 -1.04006 -1.72395
upperneck 25.7427 -1.65592 2.31614
head 10.2054 -0.650267 0.912371
rclavicle 3.18055e-015 5.96354e-015
rhumerus 6.38788 -1.72367 -93.0578
rradius 27.7094
rwrist 26.5947
rhand -24.4629 -20.6632
rfingers 7.12502
rthumb 2.03031 -50.6333
lclavicle 3.18055e-015 5.96354e-015
lhumerus 9.08808 -17.7146 93.9685
lradius 35.424
lwrist 29.1857
lhand -27.3868 -14.0609
lfingers 7.12502
lthumb -0.79363 15.9173
rfemur -36.873 -7.11284 21.916
rtibia 30.2672
rfoot 16.9729 -5.08837
rtoes 19.6781
lfemur -35.938 4.68464 -18.3744
ltibia 28.6411
lfoot 19.3358 -3.22664
ltoes 2.44608
